<svg width="167" height="62" viewBox="0 0 167 62" fill="none" xmlns="http://www.w3.org/2000/svg">
<rect x="0.85376" width="165.914" height="62" fill="#F50053"/>
<path d="M48.5566 36.2852C48.5566 35.2891 48.2051 34.5273 47.502 34C46.7988 33.4609 45.5332 32.8984 43.7051 32.3125C41.877 31.7148 40.4297 31.1289 39.3633 30.5547C36.457 28.9844 35.0039 26.8691 35.0039 24.209C35.0039 22.8262 35.3906 21.5957 36.1641 20.5176C36.9492 19.4277 38.0684 18.5781 39.5215 17.9688C40.9863 17.3594 42.627 17.0547 44.4434 17.0547C46.2715 17.0547 47.9004 17.3887 49.3301 18.0566C50.7598 18.7129 51.8672 19.6445 52.6523 20.8516C53.4492 22.0586 53.8477 23.4297 53.8477 24.9648H48.5742C48.5742 23.793 48.2051 22.8848 47.4668 22.2402C46.7285 21.584 45.6914 21.2559 44.3555 21.2559C43.0664 21.2559 42.0645 21.5312 41.3496 22.082C40.6348 22.6211 40.2773 23.3359 40.2773 24.2266C40.2773 25.0586 40.6934 25.7559 41.5254 26.3184C42.3691 26.8809 43.6055 27.4082 45.2344 27.9004C48.2344 28.8027 50.4199 29.9219 51.791 31.2578C53.1621 32.5938 53.8477 34.2578 53.8477 36.25C53.8477 38.4648 53.0098 40.2051 51.334 41.4707C49.6582 42.7246 47.4023 43.3516 44.5664 43.3516C42.5977 43.3516 40.8047 42.9941 39.1875 42.2793C37.5703 41.5527 36.334 40.5625 35.4785 39.3086C34.6348 38.0547 34.2129 36.6016 34.2129 34.9492H39.5039C39.5039 37.7734 41.1914 39.1855 44.5664 39.1855C45.8203 39.1855 46.7988 38.9336 47.502 38.4297C48.2051 37.9141 48.5566 37.1992 48.5566 36.2852ZM62.0566 26.0547C63.4043 24.4375 65.0977 23.6289 67.1367 23.6289C71.2617 23.6289 73.3535 26.0254 73.4121 30.8184V43H68.332V30.959C68.332 29.8691 68.0977 29.0664 67.6289 28.5508C67.1602 28.0234 66.3809 27.7598 65.291 27.7598C63.8027 27.7598 62.7246 28.334 62.0566 29.4824V43H56.9766V16H62.0566V26.0547ZM76.4531 33.3145C76.4531 31.4277 76.8164 29.7461 77.543 28.2695C78.2695 26.793 79.3125 25.6504 80.6719 24.8418C82.043 24.0332 83.6309 23.6289 85.4355 23.6289C88.002 23.6289 90.0938 24.4141 91.7109 25.9844C93.3398 27.5547 94.248 29.6875 94.4355 32.3828L94.4707 33.6836C94.4707 36.6016 93.6562 38.9453 92.0273 40.7148C90.3984 42.4727 88.2129 43.3516 85.4707 43.3516C82.7285 43.3516 80.5371 42.4727 78.8965 40.7148C77.2676 38.957 76.4531 36.5664 76.4531 33.543V33.3145ZM81.5332 33.6836C81.5332 35.4883 81.873 36.8711 82.5527 37.832C83.2324 38.7812 84.2051 39.2559 85.4707 39.2559C86.7012 39.2559 87.6621 38.7871 88.3535 37.8496C89.0449 36.9004 89.3906 35.3887 89.3906 33.3145C89.3906 31.5449 89.0449 30.1738 88.3535 29.2012C87.6621 28.2285 86.6895 27.7422 85.4355 27.7422C84.1934 27.7422 83.2324 28.2285 82.5527 29.2012C81.873 30.1621 81.5332 31.6562 81.5332 33.6836ZM106.354 43.3516C103.564 43.3516 101.291 42.4961 99.5332 40.7852C97.7871 39.0742 96.9141 36.7949 96.9141 33.9473V33.4551C96.9141 31.5449 97.2832 29.8398 98.0215 28.3398C98.7598 26.8281 99.8027 25.668 101.15 24.8594C102.51 24.0391 104.057 23.6289 105.791 23.6289C108.393 23.6289 110.438 24.4492 111.926 26.0898C113.426 27.7305 114.176 30.0566 114.176 33.0684V35.1426H102.064C102.229 36.3848 102.721 37.3809 103.541 38.1309C104.373 38.8809 105.422 39.2559 106.688 39.2559C108.645 39.2559 110.174 38.5469 111.275 37.1289L113.771 39.9238C113.01 41.002 111.979 41.8457 110.678 42.4551C109.377 43.0527 107.936 43.3516 106.354 43.3516ZM105.773 27.7422C104.766 27.7422 103.945 28.082 103.312 28.7617C102.691 29.4414 102.293 30.4141 102.117 31.6797H109.184V31.2754C109.16 30.1504 108.855 29.2832 108.27 28.6738C107.684 28.0527 106.852 27.7422 105.773 27.7422ZM127.377 37.7441C127.377 37.123 127.066 36.6367 126.445 36.2852C125.836 35.9219 124.852 35.5996 123.492 35.3184C118.969 34.3691 116.707 32.4473 116.707 29.5527C116.707 27.8652 117.404 26.459 118.799 25.334C120.205 24.1973 122.039 23.6289 124.301 23.6289C126.715 23.6289 128.643 24.1973 130.084 25.334C131.537 26.4707 132.264 27.9473 132.264 29.7637H127.184C127.184 29.0371 126.949 28.4395 126.48 27.9707C126.012 27.4902 125.279 27.25 124.283 27.25C123.428 27.25 122.766 27.4434 122.297 27.8301C121.828 28.2168 121.594 28.709 121.594 29.3066C121.594 29.8691 121.857 30.3262 122.385 30.6777C122.924 31.0176 123.826 31.3164 125.092 31.5742C126.357 31.8203 127.424 32.1016 128.291 32.418C130.975 33.4023 132.316 35.1074 132.316 37.5332C132.316 39.2676 131.572 40.6738 130.084 41.752C128.596 42.8184 126.674 43.3516 124.318 43.3516C122.725 43.3516 121.307 43.0703 120.064 42.5078C118.834 41.9336 117.867 41.1543 117.164 40.1699C116.461 39.1738 116.109 38.1016 116.109 36.9531H120.926C120.973 37.8555 121.307 38.5469 121.928 39.0273C122.549 39.5078 123.381 39.748 124.424 39.748C125.396 39.748 126.129 39.5664 126.621 39.2031C127.125 38.8281 127.377 38.3418 127.377 37.7441Z" fill="#F1F3F4"/>
</svg>
